<svg width="282" height="201" viewBox="0 0 282 201" fill="none" xmlns="http://www.w3.org/2000/svg">
<path d="M197 130.808L273 125.308V173.308L197 180.308V130.808Z" fill="#4D767B"/>
<path d="M165.5 115.308L231 111.308L273 125.308L197 130.808L165.5 115.308Z" fill="#4D767B"/>
<path d="M165.5 115.308L197 130.808V180.308L165.5 156.808V115.308Z" fill="#4D767B"/>
<path d="M110 97.8082L197.5 93.3082V180.308L110 190.308V97.8082Z" fill="#4D767B"/>
<path d="M84 86.3082L161.5 82.3082L197.5 93.3082L110 97.8082L84 86.3082Z" fill="#4D767B"/>
<path d="M84 86.3082L110 97.8082V190.308L84 192.808V86.3082Z" fill="#4D767B"/>
<path d="M12.9998 129.808L110 123.308V190.308L15.9998 200.308L12.9998 129.808Z" fill="#4D767B"/>
<path d="M0 113.308L84.4999 108.308L110 123.308L12.9998 129.808L0 113.308Z" fill="#4D767B"/>
<path d="M0 113.308L12.9998 129.808L15.9998 200.308L2.5 173.808L1.25 143.558L0 113.308Z" fill="#4D767B"/>
<path d="M84 86.3082L109.5 97.8082V123.308L84 108.308V86.3082Z" fill="#355E62"/>
<path d="M0 113.308L13 129.808L16 200.308L2.5 173.808L0 113.308Z" fill="#355E62"/>
<path d="M13 129.808L109.5 123.308L84 108.308L1.48509e-06 113.308L13 129.808Z" fill="#82ABB0"/>
<path d="M13 129.808L109.5 123.308L84 108.308L1.48509e-06 113.308L13 129.808Z" fill="url(#paint0_linear)"/>
<path d="M197.5 93.3082L161.5 82.3082L84 86.3082L109.5 97.8082L197.5 93.3082Z" fill="#82ABB0"/>
<path d="M197.5 93.3082L161.5 82.3082L84 86.3082L109.5 97.8082L197.5 93.3082Z" fill="url(#paint1_linear)"/>
<path d="M197.5 113.308V130.808L273 125.308L231 111.308L197.5 113.308Z" fill="#82ABB0"/>
<path d="M197.5 113.308V130.808L273 125.308L231 111.308L197.5 113.308Z" fill="url(#paint2_linear)" fill-opacity="0.6"/>
<path d="M58.7963 151.827C58.5992 150.632 58.3723 149.494 58.1156 148.412C58.8732 147.797 60.2765 147.202 62.3256 146.629C63.018 146.414 63.7355 146.267 64.478 146.189C69.2164 145.691 71.5312 147.646 71.4226 152.055C71.3588 155.529 69.4682 159.482 65.751 163.913C64.7663 165.089 63.8235 166.153 62.9226 167.106C64.1919 166.937 65.477 166.748 66.7779 166.54C68.1142 166.328 69.5956 166.136 71.2222 165.965L71.0847 170.27L57.0819 171.742L57.1383 168.196C60.526 164.372 62.8723 161.355 64.1773 159.144C65.391 157.086 66.0929 155.261 66.283 153.668C66.3132 151.233 65.2674 150.128 63.1458 150.351C62.58 150.41 61.8998 150.571 61.1051 150.833C59.9288 151.207 59.1592 151.538 58.7963 151.827Z" fill="white"/>
<path d="M158.478 109.388L158.094 133.83L153.065 134.448L153.385 115.172C152.678 115.832 151.971 116.492 151.264 117.152C150.592 117.808 149.949 118.406 149.335 118.947L147.151 116.045C147.792 115.429 148.453 114.828 149.133 114.243C149.845 113.618 150.49 113.038 151.069 112.501C151.683 111.96 152.251 111.478 152.772 111.056C153.289 110.598 153.691 110.227 153.978 109.941L158.478 109.388Z" fill="white"/>
<path d="M228.75 139.545C229.345 139.089 230.322 138.683 231.678 138.326C233.035 137.968 234.12 137.747 234.934 137.662C237.373 137.405 239.248 137.727 240.558 138.626C241.869 139.525 242.486 140.979 242.411 142.989C242.318 145.502 241.12 147.54 238.818 149.105C241.559 149.675 242.856 151.469 242.708 154.488C242.658 157.067 241.799 159.106 240.133 160.604C238.63 161.942 236.552 162.75 233.899 163.029C231.849 163.244 229.814 162.94 227.797 162.115C227.39 161.979 227.113 161.901 226.968 161.88L228.398 158.137C228.508 158.161 228.713 158.247 229.015 158.394C229.348 158.502 229.734 158.604 230.173 158.701C231.381 158.968 232.498 159.047 233.523 158.939C234.584 158.828 235.476 158.466 236.198 157.853C236.916 157.206 237.301 156.272 237.351 155.051C237.437 153.826 237.136 153 236.447 152.572C235.794 152.14 235.025 151.97 234.141 152.063C233.08 152.175 232.02 152.286 230.959 152.398L231.11 148.735L232.383 148.602C233.444 148.49 234.419 148.245 235.309 147.865C235.372 147.787 235.502 147.666 235.7 147.502C235.929 147.299 236.152 147.044 236.37 146.735C236.833 146.042 237.087 145.229 237.132 144.295C237.177 143.361 236.892 142.693 236.278 142.293C235.664 141.893 234.951 141.736 234.137 141.821C233.359 141.903 232.728 142.023 232.245 142.181C231.792 142.3 231.377 142.433 230.999 142.58C230.272 142.799 229.774 142.995 229.506 143.166L228.75 139.545Z" fill="white"/>
<path d="M198 7.77588H141V45.7759H198V7.77588Z" fill="white"/>
<path d="M198 24.4006V29.1502H161.446V45.7754H156.695V29.1502H141V24.4006H156.695V7.77539H161.446V24.4006H198Z" fill="#2E52B2"/>
<line x1="142" y1="2.66357" x2="142" y2="90.2795" stroke="black" stroke-width="2"/>
<path d="M282 19.642H225V58.2098H282V19.642Z" fill="#D80027"/>
<path d="M282 43.4319H247.51V58.2091H245.446H240.695H238.63V43.4319H225V41.3355V36.515V34.4185H238.63V19.6414H240.695H245.446H247.51V34.4185H282V36.515V41.3355V43.4319Z" fill="#F0F0F0"/>
<path d="M282 36.515V41.3355H245.446V58.2091H240.695V41.3355H225V36.515H240.695V19.6414H245.446V36.515H282Z" fill="#2E52B2"/>
<line x1="226" y1="15.8179" x2="226" y2="122.861" stroke="black" stroke-width="2"/>
<path d="M110 18.5H53V56.5004H110V18.5Z" fill="#D80027"/>
<path d="M74.375 18.4996H67.25V33.9371H53V41.0621H67.25V56.4995H74.375V41.0621H110V33.9371H74.375V18.4996Z" fill="#F0F0F0"/>
<line x1="54" y1="13.8876" x2="54" y2="120.931" stroke="black" stroke-width="2"/>
<defs>
<linearGradient id="paint0_linear" x1="83.5" y1="84.8082" x2="48.7249" y2="108.095" gradientUnits="userSpaceOnUse">
<stop stop-color="#9BA0A6"/>
<stop offset="1" stop-color="white" stop-opacity="0"/>
</linearGradient>
<linearGradient id="paint1_linear" x1="132.75" y1="82.3082" x2="132.75" y2="103.808" gradientUnits="userSpaceOnUse">
<stop stop-color="#9BA0A6" stop-opacity="0.6"/>
<stop offset="1" stop-color="white" stop-opacity="0"/>
</linearGradient>
<linearGradient id="paint2_linear" x1="220" y1="135.308" x2="253" y2="106.308" gradientUnits="userSpaceOnUse">
<stop stop-color="#9BA0A6"/>
<stop offset="1" stop-color="white" stop-opacity="0"/>
</linearGradient>
</defs>
</svg>
